<svg width="200" height="100" viewBox="0 0 200 100" fill="none" xmlns="http://www.w3.org/2000/svg">
  <rect width="200" height="100" rx="10" fill="#87CEEB"/>
  <path d="M40 30H160V70H40V30Z" fill="#ADD8E6"/>
  <path d="M95 35L110 50L95 65L80 50L95 35Z" fill="#FFFFFF"/>
  <path d="M85 50H105V55H85V55L85 50Z" fill="#ADD8E6"/>
  <path d="M110 40H150V45H110V40Z" fill="#FFFFFF"/>
  <path d="M110 48H150V53H110V48Z" fill="#FFFFFF"/>
  <path d="M110 56H150V61H110V56Z" fill="#FFFFFF"/>
  <path d="M90 35C90 35 95 40 100 40C105 40 110 35 110 35" stroke="#FFFFFF" stroke-width="2"/>
</svg> 